HIERARCHY
ROOT root
{
	OFFSET 0.000000 0.000000 0.000000
	CHANNELS 6 Xposition Yposition Zposition Zrotation Yrotation Xrotation
	JOINT lhip
	{
		OFFSET 0.058581 -0.082280 -0.017664
		CHANNELS 3 Zrotation Yrotation Xrotation
		JOINT lknee
		{
			OFFSET 0.043451 -0.386469 0.008037
			CHANNELS 3 Zrotation Yrotation Xrotation
			JOINT lankle
			{
				OFFSET -0.014790 -0.426874 -0.037428
				CHANNELS 3 Zrotation Yrotation Xrotation
				JOINT ltoe
				{
					OFFSET 0.041054 -0.060286 0.122042
					CHANNELS 3 Zrotation Yrotation Xrotation
					End Site
					{
						OFFSET 0.000000 0.000000 0.000000
					}
				}
			}
		}
	}
	JOINT rhip
	{
		OFFSET -0.060310 -0.090513 -0.013543
		CHANNELS 3 Zrotation Yrotation Xrotation
		JOINT rknee
		{
			OFFSET -0.043257 -0.383688 -0.004843
			CHANNELS 3 Zrotation Yrotation Xrotation
			JOINT rankle
			{
				OFFSET 0.019056 -0.420046 -0.034562
				CHANNELS 3 Zrotation Yrotation Xrotation
				JOINT rtoe
				{
					OFFSET -0.034840 -0.062106 0.130323
					CHANNELS 3 Zrotation Yrotation Xrotation
					End Site
					{
						OFFSET 0.000000 0.000000 0.000000
					}
				}
			}
		}
	}
	JOINT lowerback
	{
		OFFSET 0.004439 0.124404 -0.038385
		CHANNELS 3 Zrotation Yrotation Xrotation
		JOINT upperback
		{
			OFFSET 0.004488 0.137956 0.026820
			CHANNELS 3 Zrotation Yrotation Xrotation
			JOINT chest
			{
				OFFSET -0.002265 0.056032 0.002855
				CHANNELS 3 Zrotation Yrotation Xrotation
				JOINT lowerneck
				{
					OFFSET -0.013390 0.211636 -0.033468
					CHANNELS 3 Zrotation Yrotation Xrotation
					JOINT upperneck
					{
						OFFSET 0.010113 0.088937 0.050410
						CHANNELS 3 Zrotation Yrotation Xrotation
						End Site
						{
							OFFSET 0.000000 0.000000 0.000000
						}
					}
				}
				JOINT lclavicle
				{
					OFFSET 0.071702 0.114000 -0.018898
					CHANNELS 3 Zrotation Yrotation Xrotation
					JOINT lshoulder
					{
						OFFSET 0.122921 0.045205 -0.019046
						CHANNELS 3 Zrotation Yrotation Xrotation
						JOINT lelbow
						{
							OFFSET 0.255332 -0.015649 -0.022946
							CHANNELS 3 Zrotation Yrotation Xrotation
							JOINT lwrist
							{
								OFFSET 0.265709 0.012698 -0.007375
								CHANNELS 3 Zrotation Yrotation Xrotation
								End Site
								{
									OFFSET 0.000000 0.000000 0.000000
								}
							}
						}
					}
				}
				JOINT rclavicle
				{
					OFFSET -0.082954 0.112472 -0.023707
					CHANNELS 3 Zrotation Yrotation Xrotation
					JOINT rshoulder
					{
						OFFSET -0.113228 0.046853 -0.008472
						CHANNELS 3 Zrotation Yrotation Xrotation
						JOINT relbow
						{
							OFFSET -0.260127 -0.014369 -0.031269
							CHANNELS 3 Zrotation Yrotation Xrotation
							JOINT rwrist
							{
								OFFSET -0.269108 0.006794 -0.006027
								CHANNELS 3 Zrotation Yrotation Xrotation
								End Site
								{
									OFFSET 0.000000 0.000000 0.000000
								}
							}
						}
					}
				}
			}
		}
	}
}
MOTION
Frames: 8
Frame Time: 0.033333
0.865921 -1.673855 0.966958 161.195176 -1.350902 89.374378 1.935443 -1.723653 -10.797458 -5.272862 -0.117175 14.453396 0.853960 10.577920 -13.798362 0.000000 -0.000000 0.000000 -1.701941 -1.577338 4.620030 -1.171334 2.430378 12.727426 1.501224 -9.551571 -24.955417 0.000000 -0.000000 0.000000 1.378576 3.214467 18.129158 1.669340 -1.477139 5.043553 1.296323 -1.368458 3.887367 -3.455849 8.104800 -2.384733 -2.148858 4.119443 2.488002 -24.889949 9.474804 3.778009 -51.321161 7.300483 10.708389 -1.330784 -48.622839 19.762132 0.176240 -13.109130 -17.831870 23.071275 -1.721143 5.719069 46.916367 -2.876623 14.111170 -5.613116 41.981915 9.425770 4.234307 9.122190 -3.971945 
0.865542 -1.674483 0.966968 160.686143 -1.368329 89.396028 2.018525 -1.701921 -10.878560 -5.312518 0.056957 14.568867 0.710168 10.765362 -13.851739 0.000000 -0.000000 0.000000 -1.764489 -1.444062 4.253430 -1.179023 2.762337 13.140679 1.380413 -9.366552 -25.092852 0.000000 -0.000000 0.000000 1.403262 3.143181 18.208866 1.687457 -1.487985 4.962824 1.291593 -1.318774 3.948886 -3.551492 8.258077 -2.588037 -2.339624 4.171892 2.528064 -24.809002 9.464053 3.689523 -51.491522 7.114492 10.663822 -1.297411 -48.566357 19.656070 -0.354667 -13.107902 -17.760826 23.178564 -1.804978 5.638136 46.853475 -2.802458 14.078414 -5.625458 41.989240 9.107344 4.606991 9.180516 -4.062834 
0.865271 -1.675205 0.966826 160.202020 -1.376041 89.426086 2.078800 -1.621861 -10.961907 -5.314890 0.120441 14.619490 0.633543 11.017096 -13.901302 0.000000 -0.000000 0.000000 -1.779112 -1.287837 3.790982 -1.185015 3.148402 13.728849 1.305561 -9.264843 -25.341772 0.000000 -0.000000 0.000000 1.394219 3.058744 18.243838 1.756383 -1.486503 4.938075 1.300336 -1.288944 3.959228 -3.644241 8.410745 -2.682336 -2.562355 4.259994 2.516504 -24.744878 9.411040 3.676196 -51.599714 6.951840 10.650744 -1.232711 -48.603115 19.631222 -0.346289 -12.935947 -17.990568 23.202849 -1.842816 5.663281 46.862074 -2.763658 14.129634 -5.672886 42.101225 9.023809 4.581615 9.156419 -4.356523 
0.865344 -1.676097 0.966681 159.712422 -1.369281 89.426864 2.148001 -1.481020 -11.063276 -5.414534 -0.142076 14.814867 0.634783 11.406050 -14.018802 0.000000 -0.000000 0.000000 -1.685819 -1.057045 3.162096 -1.263973 3.886617 14.750787 1.149767 -9.135680 -25.718252 0.000000 -0.000000 0.000000 1.367928 2.915341 18.161556 1.897897 -1.536665 5.059453 1.315740 -1.292564 3.916039 -3.799575 8.519623 -2.523483 -2.789238 4.474149 2.334770 -24.701581 9.160581 3.806157 -51.661228 6.861145 10.687799 -0.858194 -48.830209 19.249894 0.102423 -12.741407 -18.306827 23.200323 -1.756305 5.830111 46.927854 -2.773411 14.164919 -5.711428 42.279182 9.026696 4.450222 9.104107 -4.679323 
0.865405 -1.677124 0.966432 159.344728 -1.450452 89.462166 2.153189 -1.496943 -11.145567 -5.485490 -0.073779 14.886383 0.689210 11.620821 -14.043493 0.000000 -0.000000 0.000000 -1.703568 -0.599955 2.563065 -1.312383 4.747499 15.756670 1.041906 -8.848902 -26.030691 0.000000 -0.000000 0.000000 1.272804 2.835297 18.065927 1.953301 -1.543657 5.218617 1.308158 -1.301039 3.865355 -3.890984 8.675108 -2.491525 -2.930943 4.592166 2.345138 -24.569170 8.818498 3.877866 -51.824788 6.916645 10.850502 -0.221485 -48.907644 18.541690 0.474496 -12.693680 -18.618902 23.181734 -1.627008 5.969193 47.045665 -2.728873 14.234219 -5.858620 42.356044 8.900487 4.400917 9.077403 -4.905491 
0.865492 -1.679241 0.965912 158.898626 -1.606241 89.544258 2.128567 -1.535834 -11.417010 -5.569040 0.084107 15.108772 0.799658 11.903050 -14.083465 0.000000 -0.000000 0.000000 -1.762731 0.403269 1.538122 -1.311622 6.611633 17.551118 0.919208 -8.160893 -26.550845 0.000000 -0.000000 0.000000 1.092370 2.657730 17.994872 2.057873 -1.507750 5.289932 1.240485 -1.237030 3.916005 -3.933178 8.927920 -2.536502 -3.192762 4.595666 2.422840 -24.373675 8.722623 3.710325 -51.875019 6.768691 11.032264 0.170259 -48.990634 18.037392 0.795353 -12.593808 -18.888917 23.166144 -1.626121 5.948538 47.213027 -2.586701 14.520350 -6.033100 42.382797 8.669618 4.296884 9.049316 -5.236936 
0.866143 -1.681872 0.965443 158.614127 -1.694516 89.453859 2.182039 -1.499102 -11.647267 -5.645567 0.106748 15.527313 0.806248 12.133016 -14.162748 0.000000 -0.000000 0.000000 -1.677047 1.719861 0.781474 -1.239564 8.806013 19.358433 0.805690 -7.324466 -27.044931 0.000000 -0.000000 0.000000 0.940741 2.356110 18.157605 2.218961 -1.423873 5.281707 1.169071 -1.139491 4.031992 -3.924816 9.133664 -2.575318 -3.495536 4.506525 2.309367 -24.299293 8.943468 3.423697 -51.691448 6.440082 11.019023 0.131433 -49.168014 18.010293 1.011211 -12.483483 -18.865549 23.204407 -1.767477 5.714737 47.294387 -2.468781 14.874612 -6.066769 42.483788 8.523661 4.047016 8.993593 -5.713268 
0.867521 -1.684800 0.965073 158.673920 -1.679083 89.142272 2.373132 -1.538469 -11.660316 -5.737620 0.018399 15.884226 0.671353 12.246338 -14.200188 0.000000 -0.000000 0.000000 -1.398403 2.903456 0.644674 -1.156948 10.339834 20.497981 0.650701 -6.740125 -27.441203 0.000000 -0.000000 0.000000 0.901910 1.956970 18.444888 2.420298 -1.483716 5.498981 1.173916 -1.116407 4.031238 -3.945758 9.279488 -2.600219 -3.722675 4.483244 2.160414 -24.274348 8.736766 3.370618 -51.702009 6.304305 10.991131 0.739145 -49.297046 17.353285 1.413208 -12.509042 -18.856097 23.238708 -1.700805 5.603699 47.333335 -2.429707 15.016971 -6.103328 42.701369 8.498024 3.780130 8.913031 -6.311211 
